HIERARCHY
ROOT Hips
{
	OFFSET 0.000000 0.000000 0.000000
	CHANNELS 6 Xposition Yposition Zposition Zrotation Yrotation Xrotation 
	JOINT LHipJoint
	{
		OFFSET 0.000000 0.000000 0.000000
		CHANNELS 3 Zrotation Yrotation Xrotation
		JOINT LeftUpLeg
		{
			OFFSET 1.363060 -1.794630 0.839290
			CHANNELS 3 Zrotation Yrotation Xrotation
			JOINT LeftLeg
			{
				OFFSET 2.448110 -6.726130 0.000000
				CHANNELS 3 Zrotation Yrotation Xrotation
				JOINT LeftFoot
				{
					OFFSET 2.562200 -7.039590 0.000000
					CHANNELS 3 Zrotation Yrotation Xrotation
					JOINT LeftToeBase
					{
						OFFSET 0.157640 -0.433110 2.322550
						CHANNELS 3 Zrotation Yrotation Xrotation
						End Site
						{
							OFFSET 0.000000 0.000000 0.000000
						}
					}
				}
			}
		}
	}
	JOINT RHipJoint
	{
		OFFSET 0.000000 0.000000 0.000000
		CHANNELS 3 Zrotation Yrotation Xrotation
		JOINT RightUpLeg
		{
			OFFSET -1.305520 -1.794630 0.839290
			CHANNELS 3 Zrotation Yrotation Xrotation
			JOINT RightLeg
			{
				OFFSET -2.542530 -6.985550 0.000000
				CHANNELS 3 Zrotation Yrotation Xrotation
				JOINT RightFoot
				{
					OFFSET -2.568260 -7.056230 0.000000
					CHANNELS 3 Zrotation Yrotation Xrotation
					JOINT RightToeBase
					{
						OFFSET -0.164730 -0.452590 2.363150
						CHANNELS 3 Zrotation Yrotation Xrotation
						End Site
						{
							OFFSET 0.000000 0.000000 0.000000
						}
					}
				}
			}
		}
	}
	JOINT LowerBack
	{
		OFFSET 0.000000 0.000000 0.000000
		CHANNELS 3 Zrotation Yrotation Xrotation
		JOINT Spine
		{
			OFFSET 0.028270 2.035590 -0.193380
			CHANNELS 3 Zrotation Yrotation Xrotation
			JOINT Spine1
			{
				OFFSET 0.056720 2.048850 -0.042750
				CHANNELS 3 Zrotation Yrotation Xrotation
				JOINT Neck
				{
					OFFSET 0.000000 0.000000 0.000000
					CHANNELS 3 Zrotation Yrotation Xrotation
					JOINT Neck1
					{
						OFFSET -0.054170 1.746240 0.172020
						CHANNELS 3 Zrotation Yrotation Xrotation
						JOINT Head
						{
							OFFSET 0.104070 1.761360 -0.123970
							CHANNELS 3 Zrotation Yrotation Xrotation
							End Site
							{
								OFFSET 0.000000 0.000000 0.000000
							}
						}
					}
				}
				JOINT LeftShoulder
				{
					OFFSET 0.000000 0.000000 0.000000
					CHANNELS 3 Zrotation Yrotation Xrotation
					JOINT LeftArm
					{
						OFFSET 3.362410 1.200890 -0.311210
						CHANNELS 3 Zrotation Yrotation Xrotation
						JOINT LeftForeArm
						{
							OFFSET 4.983000 -0.000000 -0.000000
							CHANNELS 3 Zrotation Yrotation Xrotation
							JOINT LeftHand
							{
								OFFSET 3.483560 -0.000000 -0.000000
								CHANNELS 3 Zrotation Yrotation Xrotation
								JOINT LeftFingerBase
								{
									OFFSET 0.000000 0.000000 0.000000
									CHANNELS 3 Zrotation Yrotation Xrotation
									JOINT LeftHandIndex1
									{
										OFFSET 0.715260 -0.000000 -0.000000
										CHANNELS 3 Zrotation Yrotation Xrotation
										End Site
										{
											OFFSET 0.000000 0.000000 0.000000
										}
									}
								}
								JOINT LThumb
								{
									OFFSET 0.000000 0.000000 0.000000
									CHANNELS 3 Zrotation Yrotation Xrotation
									End Site
									{
										OFFSET 0.000000 0.000000 0.000000
									}
								}
							}
						}
					}
				}
				JOINT RightShoulder
				{
					OFFSET 0.000000 0.000000 0.000000
					CHANNELS 3 Zrotation Yrotation Xrotation
					JOINT RightArm
					{
						OFFSET -3.136600 1.374050 -0.404650
						CHANNELS 3 Zrotation Yrotation Xrotation
						JOINT RightForeArm
						{
							OFFSET -5.241900 -0.000000 -0.000000
							CHANNELS 3 Zrotation Yrotation Xrotation
							JOINT RightHand
							{
								OFFSET -3.444170 -0.000000 -0.000000
								CHANNELS 3 Zrotation Yrotation Xrotation
								JOINT RightFingerBase
								{
									OFFSET 0.000000 0.000000 0.000000
									CHANNELS 3 Zrotation Yrotation Xrotation
									JOINT RightHandIndex1
									{
										OFFSET -0.622530 -0.000000 -0.000000
										CHANNELS 3 Zrotation Yrotation Xrotation
										End Site
										{
											OFFSET 0.000000 0.000000 0.000000
										}
									}
								}
								JOINT RThumb
								{
									OFFSET 0.000000 0.000000 0.000000
									CHANNELS 3 Zrotation Yrotation Xrotation
									End Site
									{
										OFFSET 0.000000 0.000000 0.000000
									}
								}
							}
						}
					}
				}
			}
		}
	}
}
MOTION
Frames: 6
Frame Time: 0.008333
-2.734760 17.574623 -0.633257 143.134872 85.456970 142.351166 2.591224 -2.933133 -1.647160 -21.048035 -6.578029 1.994794 0.496614 8.626127 20.829641 -1.667383 15.591796 -22.224864 0.135300 2.370900 6.531700 -8.607178 3.122559 -6.916151 21.240249 -1.209021 8.676621 -1.190954 -6.391505 15.711210 -0.441465 -19.487880 -29.054185 -0.095200 -1.990100 5.478400 -3.636582 0.778101 0.796647 0.121850 0.529466 -1.146975 3.799566 0.342661 5.943657 -5.783064 1.332757 -20.353303 3.784922 3.747475 11.533841 0.962100 1.433200 12.820000 -7.625654 -2.231246 -0.989204 -81.781689 -3.815262 23.738381 7.048751 -20.209169 -1.892857 -0.260132 0.151051 -3.025172 23.855847 -7.823668 -3.558100 -7.125000 0.000000 0.000000 -1.982200 21.242600 1.130000 10.660268 3.528742 -0.605289 67.978230 1.911917 18.596917 -9.532546 21.163065 -3.042707 1.332389 -0.096152 -6.217227 -15.122848 -31.096365 8.549100 7.125000 0.000000 0.000000 17.612400 -60.813900 -6.911200 
-2.729649 17.575979 -0.640767 139.887371 85.530270 139.137971 2.652722 -2.923421 -1.662747 -21.387129 -6.606503 2.242169 0.447324 8.511050 20.456350 -1.764373 16.061972 -22.285915 0.121400 2.245800 6.185300 -8.534883 3.124465 -6.908491 20.818273 -1.485297 8.186506 -1.256317 -6.586689 16.288623 -0.526608 -18.776795 -28.766652 -0.088700 -1.920900 5.287200 -3.728696 0.846742 0.649567 0.091910 0.629161 -1.112503 3.814929 0.382308 6.093773 -5.875187 1.298712 -20.418613 3.823580 3.743230 11.546023 1.002500 1.425900 12.830700 -7.629939 -2.212776 -0.982077 -81.828927 -3.995816 23.245332 6.902929 -19.993714 -1.851313 -0.253071 0.149032 -2.009881 23.434169 -7.727306 -3.442800 -7.125000 0.000000 0.000000 -2.288000 21.384200 1.297300 10.649034 3.525977 -0.602068 68.068971 1.920902 17.992307 -9.639283 21.290272 -3.105866 1.337806 -0.090872 -5.735731 -14.843640 -31.800934 8.576700 7.125000 0.000000 0.000000 18.464300 -61.428400 -7.528600 
-2.723807 17.576292 -0.644522 138.293431 85.552460 137.550821 2.678944 -2.920050 -1.667769 -21.544860 -6.582228 2.319727 0.439069 8.498882 20.406139 -1.777012 16.157566 -22.376022 0.109300 2.131600 5.869500 -8.499086 3.133629 -6.919320 20.618353 -1.603035 8.105412 -1.266083 -6.606586 16.364664 -0.525429 -18.678235 -28.579844 -0.095000 -1.988000 5.472400 -3.780511 0.854664 0.557109 0.073277 0.649367 -1.083580 3.798530 0.383996 6.224204 -5.883544 1.296119 -20.523491 3.835877 3.755323 11.571744 1.014800 1.429900 12.862600 -7.632717 -2.201765 -0.976225 -81.806467 -4.124182 22.753079 6.805762 -19.842887 -1.823751 -0.243104 0.145733 -1.101653 22.785317 -7.786041 -3.357600 -7.125000 0.000000 0.000000 -2.765500 21.372400 1.569300 10.638013 3.521031 -0.601339 68.220733 1.971766 17.406169 -9.746735 21.404266 -3.147666 1.337121 -0.101697 -5.175827 -14.576328 -31.946743 8.465500 7.125000 0.000000 0.000000 18.876000 -61.504800 -7.737400 
-2.721930 17.574101 -0.649007 137.797327 85.641792 137.073445 2.686931 -2.915878 -1.673727 -21.551736 -6.507620 2.368675 0.429811 8.469777 20.324181 -1.778600 16.189270 -22.435756 0.109300 2.131900 5.870400 -8.495842 3.131538 -6.919035 20.578997 -1.724863 7.969917 -1.274529 -6.646428 16.468868 -0.520387 -18.605727 -28.416915 -0.073800 -1.752900 4.823400 -3.681630 0.875391 0.516230 0.062807 0.675589 -1.062499 3.716052 0.395688 6.303783 -5.870697 1.288749 -20.616020 3.833537 3.745653 11.554705 1.014700 1.424500 12.871800 -7.635246 -2.198016 -0.969907 -81.753838 -4.231491 22.394324 6.714638 -19.697238 -1.796835 -0.231640 0.144890 -0.306178 22.214118 -8.102658 -3.390800 -7.125000 0.000000 0.000000 -3.192800 21.074000 1.834000 10.626596 3.517033 -0.601522 68.387438 2.013090 16.780745 -9.878551 21.542439 -3.193146 1.334879 -0.120032 -4.625698 -14.454081 -31.920233 8.390200 7.125000 0.000000 0.000000 18.986300 -61.446300 -7.758100 
-2.725372 17.575353 -0.655996 137.402949 85.909930 136.722931 2.686357 -2.908067 -1.678132 -21.431669 -6.466261 2.339354 0.429929 8.465243 20.323941 -1.777019 16.260429 -22.633054 0.134600 2.364900 6.515100 -8.521543 3.126204 -6.910813 20.684343 -1.805710 7.778765 -1.271822 -6.647446 16.437007 -0.516331 -18.435823 -28.142080 -0.058700 -1.562700 4.298700 -3.423795 0.947612 0.513089 0.069233 0.750258 -1.062114 3.610939 0.440763 6.292571 -5.859002 1.279882 -20.637823 3.813876 3.727730 11.537088 1.005100 1.413900 12.870000 -7.629502 -2.204744 -0.964879 -81.746947 -4.280902 22.261538 6.655865 -19.603515 -1.779284 -0.227959 0.145866 0.087685 22.103698 -8.227202 -3.422000 -7.125000 0.000000 0.000000 -3.277100 20.948300 1.891900 10.617509 3.518724 -0.609951 68.548735 1.834946 16.162143 -10.116801 21.812290 -3.276775 1.333627 -0.132219 -4.118098 -14.268546 -32.040354 8.316100 7.125000 0.000000 0.000000 19.286700 -61.514800 -7.917400 
-2.730587 17.577752 -0.662985 135.567795 86.186715 134.902300 2.707646 -2.900589 -1.680165 -21.435632 -6.597799 2.388026 0.431969 8.477684 20.369496 -1.739814 16.286913 -23.102804 0.193000 2.828900 7.802900 -8.519291 3.133196 -6.905928 20.720527 -1.692017 7.687645 -1.268265 -6.614611 16.333175 -0.512486 -18.325242 -27.933182 -0.061800 -1.603600 4.411300 -3.247462 1.033960 0.584100 0.068098 0.845096 -1.072703 3.531879 0.499622 6.207472 -5.810774 1.284099 -20.628537 3.758062 3.715238 11.556066 0.967500 1.405400 12.888600 -7.616336 -2.223907 -0.956784 -81.768572 -4.333112 21.592571 6.550132 -19.431933 -1.751880 -0.217410 0.144519 1.301445 21.578852 -8.283738 -3.351900 -7.125000 0.000000 0.000000 -3.662700 20.929400 2.116900 10.600461 3.529217 -0.635220 68.867005 1.253925 15.324462 -10.701592 22.484968 -3.474409 1.330951 -0.146738 -3.366539 -13.808788 -32.292251 8.120600 7.125000 0.000000 0.000000 20.001200 -61.644200 -8.285200 
